<?xml version="1.0" standalone="no"?>
<!DOCTYPE svg PUBLIC "-//W3C//DTD SVG 20010904//EN"
 "http://www.w3.org/TR/2001/REC-SVG-20010904/DTD/svg10.dtd">
<svg version="1.0" xmlns="http://www.w3.org/2000/svg"
 width="180.000000pt" height="180.000000pt" viewBox="0 0 180.000000 180.000000"
 preserveAspectRatio="xMidYMid meet">

<g transform="translate(0.000000,180.000000) scale(0.100000,-0.100000)"
fill="#000000" stroke="none">
<path d="M0 1756 l0 -44 55 -7 c47 -5 63 -3 108 19 74 36 229 75 234 59 5 -14
43 -17 81 -7 63 17 -1 24 -228 24 l-250 0 0 -44z"/>
<path d="M665 1791 c8 -14 -6 -20 -58 -23 -26 -2 -49 -9 -52 -15 -5 -15 -40
-17 -81 -4 -16 5 -50 12 -76 15 -44 5 -48 4 -54 -18 -3 -14 -12 -27 -20 -30
-8 -3 -14 -12 -14 -20 0 -20 -67 -25 -104 -7 -23 10 -34 11 -48 2 -10 -6 -49
-16 -88 -23 l-70 -12 2 -221 3 -220 34 3 c19 1 39 9 45 17 8 10 29 13 73 12
33 -1 59 2 56 7 -3 4 10 4 28 0 19 -5 80 -9 137 -9 56 0 95 -3 85 -6 -16 -6
-15 -8 7 -17 19 -7 27 -6 37 7 8 12 8 18 0 23 -6 4 1 10 16 14 31 7 49 -3 27
-16 -7 -5 -14 -14 -16 -22 -4 -30 -47 -88 -64 -88 -11 0 -22 -5 -25 -11 -8
-12 -365 -9 -365 3 0 15 -33 38 -56 38 l-24 0 0 -288 c0 -277 1 -288 19 -288
11 0 17 4 15 8 -3 4 9 8 25 8 17 0 31 -4 31 -10 0 -5 10 -10 23 -10 18 0 19 2
7 10 -11 7 -6 9 17 7 18 -1 33 -6 33 -10 0 -4 9 -3 19 3 23 12 34 13 28 3 -3
-5 53 -7 124 -7 71 1 132 -2 135 -7 3 -5 13 -9 22 -8 14 0 13 2 -3 9 -13 6 8
8 58 5 61 -4 77 -2 71 7 -4 7 2 5 14 -6 12 -10 24 -35 28 -55 3 -20 13 -41 21
-48 18 -14 34 -118 19 -133 -7 -7 -6 -10 4 -10 7 0 11 -3 7 -6 -8 -9 21 -64
33 -64 6 0 10 -16 10 -35 0 -19 -3 -35 -8 -35 -4 0 -12 -10 -17 -22 -6 -13
-27 -31 -47 -40 -71 -34 -82 -82 -25 -111 l32 -16 -27 2 c-15 1 -30 7 -32 14
-3 7 -19 13 -35 13 -16 0 -33 4 -36 10 -3 5 -2 10 4 10 6 0 8 18 5 44 -5 36
-2 48 15 65 12 12 19 26 15 32 -3 6 -11 3 -18 -7 -12 -16 -14 -15 -18 8 -3 18
-1 25 7 22 14 -6 9 43 -7 63 -5 7 -7 21 -3 32 5 16 1 22 -22 27 -15 3 -46 13
-68 21 -22 9 -85 18 -141 21 -86 4 -107 2 -147 -16 -28 -12 -51 -31 -60 -49
-13 -26 -53 -171 -60 -221 -4 -29 -32 -62 -52 -62 -9 0 -15 -9 -15 -25 l0 -25
640 0 c504 0 639 3 635 13 -2 6 -6 32 -10 56 -6 45 -6 45 15 26 11 -10 20 -24
20 -32 0 -9 15 -13 45 -14 63 -2 65 -2 75 -19 8 -12 10 -11 10 7 0 28 -37 53
-88 60 -33 4 -43 12 -61 44 -12 22 -26 39 -31 39 -14 0 -23 61 -11 73 16 16
13 36 -13 92 -13 28 -20 52 -15 53 5 2 10 16 10 30 1 27 1 26 8 -3 6 -29 8
-30 60 -29 74 2 80 12 51 81 -13 31 -23 62 -23 70 0 10 -3 10 -15 0 -13 -10
-14 -8 -7 13 4 14 12 27 17 29 5 1 3 8 -5 15 -12 9 -11 14 4 29 18 16 19 16
19 -18 0 -34 8 -43 24 -27 4 4 105 7 224 7 l217 0 3 416 2 415 -36 -4 c-26 -3
-35 -1 -30 7 4 6 20 11 37 11 25 0 29 4 29 26 0 29 8 29 -125 4 -78 -14 -137
-40 -131 -57 6 -14 -4 -16 -43 -13 -15 1 -21 -2 -16 -10 5 -8 -3 -11 -26 -8
-25 2 -35 -1 -37 -13 -3 -18 50 -29 135 -29 27 0 42 -4 38 -10 -4 -6 15 -10
49 -10 56 0 86 -7 86 -19 0 -6 -43 -12 -97 -13 -13 0 -23 -3 -23 -7 0 -3 -30
-5 -67 -4 -38 2 -108 4 -158 6 -49 2 -97 7 -106 11 -10 4 -23 1 -33 -9 -9 -9
-32 -19 -51 -22 -36 -6 -59 -23 -31 -23 9 0 22 -13 31 -30 9 -16 21 -30 27
-30 6 0 8 -3 5 -7 -4 -3 2 -21 13 -38 24 -39 39 -155 21 -155 -7 0 -10 -4 -7
-9 4 -5 -4 -7 -15 -4 -21 6 -21 7 -4 20 11 7 15 13 11 13 -5 0 -4 6 2 13 11
13 0 51 -17 62 -6 3 -11 -1 -11 -9 0 -9 -4 -16 -10 -16 -5 0 -7 7 -4 15 4 8 1
22 -6 30 -8 9 -8 15 -2 15 6 0 13 -6 15 -12 4 -9 6 -10 6 -1 1 19 -19 66 -26
60 -8 -9 -45 12 -38 23 3 4 -4 6 -15 3 -18 -5 -24 -15 -21 -35 2 -13 -6 -9
-20 9 -10 11 -10 14 -1 9 15 -9 15 4 2 39 -8 22 -8 26 3 22 10 -4 12 3 9 23
-3 20 -9 28 -22 27 -15 -1 -16 -5 -9 -19 6 -12 6 -18 0 -18 -6 0 -8 -7 -5 -15
5 -11 2 -13 -10 -9 -11 4 -16 18 -16 44 0 33 -3 38 -20 35 -23 -4 -36 10 -19
21 8 5 9 3 4 -6 -5 -9 -4 -11 3 -6 8 5 8 15 2 32 -15 39 -11 64 5 29 l14 -30
2 30 c1 17 1 33 0 37 -1 7 9 11 84 27 65 15 134 18 163 8 21 -8 23 -6 20 19
-2 23 -12 31 -55 49 -55 22 -79 37 -44 28 12 -3 21 -1 21 6 0 6 -13 11 -29 11
-16 0 -31 5 -33 11 -2 5 -24 13 -48 16 -52 6 -46 -10 9 -24 34 -9 55 -33 29
-33 -7 0 -21 -8 -30 -19 -15 -17 -14 -18 9 -18 13 0 29 -5 35 -11 7 -7 -1 -10
-26 -10 -19 0 -40 6 -47 14 -13 16 -39 19 -39 5 0 -5 6 -12 13 -14 9 -4 9 -6
-1 -6 -18 -1 -43 25 -34 34 4 5 1 5 -6 1 -7 -4 -24 0 -38 9 -13 9 -29 13 -34
10 -16 -10 -11 42 5 55 9 7 14 15 11 17 -8 8 -45 -30 -39 -40 3 -6 1 -7 -5 -3
-6 3 -20 -6 -32 -21 -17 -22 -21 -36 -16 -73 3 -25 3 -39 0 -32 -7 15 -74 16
-74 1 0 -5 -5 -7 -12 -3 -8 5 -9 2 -5 -9 5 -12 1 -17 -13 -17 -11 0 -20 -4
-20 -9 0 -7 -141 -29 -198 -30 -13 0 -44 -8 -69 -17 -39 -15 -43 -19 -29 -30
15 -11 15 -12 -2 -16 -22 -6 -62 8 -62 21 0 5 9 12 19 16 13 4 17 12 14 25 -6
22 12 28 20 8 3 -10 9 -9 22 4 17 16 16 17 -24 28 -22 6 -41 15 -41 20 0 15
-46 12 -60 -4 -8 -10 -26 -14 -58 -11 -26 2 -53 4 -60 4 -7 1 -10 6 -7 12 4 6
19 7 36 4 22 -5 29 -3 29 8 0 20 22 27 80 27 30 0 52 5 60 15 10 12 23 14 54
9 66 -10 169 -12 201 -3 16 5 37 17 45 28 8 10 24 24 35 30 l20 12 -20 -3
c-34 -3 -105 13 -102 24 1 6 -4 13 -10 15 -7 3 -13 -1 -13 -9 0 -13 -38 -43
-46 -36 -2 2 4 17 12 33 8 16 12 40 9 53 -4 15 -1 22 7 21 28 -3 38 2 38 21 0
23 34 40 83 40 18 0 39 5 47 10 12 7 8 10 -14 10 -42 0 -23 13 59 38 116 37
112 42 -38 42 -83 0 -136 -4 -132 -9z m-355 -162 c0 -5 5 -7 10 -4 6 3 13 -1
16 -10 5 -11 10 -13 19 -5 19 16 85 2 85 -17 0 -8 9 -17 20 -20 11 -3 20 -9
20 -14 0 -5 7 -9 15 -9 9 0 12 -6 9 -15 -4 -9 -19 -15 -40 -15 -23 0 -37 -6
-44 -20 -6 -11 -15 -20 -21 -20 -6 0 -8 4 -5 9 4 5 -2 7 -13 4 -23 -6 -38 14
-22 30 8 8 5 17 -11 34 -12 13 -27 23 -34 23 -7 0 -25 5 -40 10 -26 10 -27 11
-8 30 21 21 44 26 44 9z m254 -97 c-22 -5 -31 7 -14 18 9 6 17 5 22 -3 4 -7 1
-13 -8 -15z m736 -72 c0 -5 -2 -10 -4 -10 -3 0 -8 5 -11 10 -3 6 -1 10 4 10 6
0 11 -4 11 -10z m-382 -109 c15 -31 7 -50 -35 -80 -46 -33 -68 -38 -77 -18 -4
6 -4 2 -2 -10 4 -22 -25 -44 -32 -24 -2 6 -11 11 -19 11 -10 0 -13 -6 -9 -16
5 -12 1 -14 -17 -8 -23 8 -35 8 -79 1 -16 -2 -28 -1 -28 4 0 5 -7 6 -16 2 -12
-4 -15 -2 -12 8 3 9 20 14 50 14 26 0 50 3 54 8 4 4 -2 7 -14 7 -12 0 -22 5
-22 10 0 6 -15 10 -32 11 l-33 1 38 15 c20 9 37 19 37 24 0 4 15 5 34 2 25 -4
48 2 87 22 30 14 58 30 62 34 13 12 57 0 65 -18z m395 -178 c-7 -2 -19 -2 -25
0 -7 3 -2 5 12 5 14 0 19 -2 13 -5z m-626 -49 c-2 -2 -12 -2 -21 2 -13 5 -14
9 -5 21 11 12 14 12 22 -2 5 -9 7 -19 4 -21z m329 -38 c-12 -31 -25 -46 -51
-58 -27 -12 -33 -12 -24 -2 6 7 19 16 28 19 10 3 23 16 29 30 9 20 9 23 -3 18
-8 -3 -15 0 -15 6 0 12 -33 15 -44 4 -3 -4 -17 -8 -29 -10 l-22 -4 22 16 c13
9 40 17 60 19 21 2 42 11 48 20 18 29 19 -11 1 -58z m52 48 c0 -18 -3 -22 -9
-13 -11 18 -11 39 0 39 5 0 9 -12 9 -26z m-591 -20 c-3 -3 -12 -4 -19 -1 -8 3
-5 6 6 6 11 1 17 -2 13 -5z m199 -21 c-7 -7 -26 7 -26 19 0 6 6 6 15 -2 9 -7
13 -15 11 -17z m-431 -3 c4 -6 -8 -11 -27 -12 -29 -1 -28 -2 12 -8 37 -6 31
-7 -33 -6 -44 0 -77 5 -77 11 0 6 11 10 25 11 14 1 28 4 32 8 10 10 61 7 68
-4z m675 -41 c0 -5 -4 -9 -10 -9 -5 0 -10 7 -10 16 0 8 5 12 10 9 6 -3 10 -10
10 -16z m230 11 c0 -5 -5 -10 -11 -10 -5 0 -7 5 -4 10 3 6 8 10 11 10 2 0 4
-4 4 -10z m0 -30 c0 -5 -5 -10 -11 -10 -5 0 -7 5 -4 10 3 6 8 10 11 10 2 0 4
-4 4 -10z m70 -10 c0 -5 -7 -10 -16 -10 -8 0 -12 5 -9 10 3 6 10 10 16 10 5 0
9 -4 9 -10z m-38 -52 c-7 -7 -12 -8 -12 -2 0 14 12 26 19 19 2 -3 -1 -11 -7
-17z m-219 -3 c-3 -9 3 -23 13 -31 11 -9 14 -13 7 -10 -6 4 -13 1 -15 -5 -3
-8 -7 -7 -15 2 -10 13 -1 59 11 59 3 0 3 -7 -1 -15z m315 -20 c-6 -14 -15 -25
-19 -25 -4 0 -2 11 4 25 7 14 15 25 19 25 4 0 2 -11 -4 -25z m-358 6 c0 -6 -4
-13 -10 -16 -5 -3 -10 1 -10 9 0 9 5 16 10 16 6 0 10 -4 10 -9z m-150 -41 c0
-5 -2 -10 -4 -10 -3 0 -8 5 -11 10 -3 6 -1 10 4 10 6 0 11 -4 11 -10z m290
-10 c0 -14 -11 -22 -41 -30 -33 -9 -39 -14 -34 -31 5 -15 2 -19 -17 -18 -21 0
-21 1 -4 8 13 5 16 10 8 15 -16 9 22 46 48 46 13 0 18 5 14 15 -4 9 0 15 10
15 9 0 16 -8 16 -20z m177 -19 c0 -22 -3 -26 -12 -18 -9 9 -9 16 -1 29 6 10
11 18 12 18 0 0 1 -13 1 -29z m-387 5 c0 -7 -11 -16 -25 -18 -14 -3 -25 -1
-25 4 0 5 -4 6 -10 3 -5 -3 -10 -2 -10 4 0 12 18 19 48 20 12 1 22 -5 22 -13z
m82 -16 c6 0 5 -7 -3 -17 -10 -11 -10 -14 -1 -9 8 5 12 1 12 -11 0 -24 20 -45
35 -35 6 4 2 -1 -9 -11 -19 -18 -20 -17 -41 33 -12 28 -26 51 -31 50 -4 -1
-10 4 -12 12 -2 9 0 8 7 -2 8 -12 11 -11 18 5 7 18 8 18 11 3 2 -10 8 -18 14
-18z m38 20 c0 -5 -2 -10 -4 -10 -3 0 -8 5 -11 10 -3 6 -1 10 4 10 6 0 11 -4
11 -10z m304 -65 c-4 -8 -14 -15 -23 -14 -10 0 -11 2 -3 6 6 2 12 19 13 36 0
29 1 30 9 9 5 -12 7 -29 4 -37z m-173 4 l-21 -23 0 26 c0 27 18 42 34 28 4 -5
-1 -19 -13 -31z m-454 -16 c-3 -10 -5 -4 -5 12 0 17 2 24 5 18 2 -7 2 -21 0
-30z m423 18 c0 -26 -22 -41 -48 -34 -43 11 -18 43 41 52 4 0 7 -7 7 -18z
m-256 3 c20 -8 11 -24 -15 -24 -19 0 -25 11 -12 23 8 8 8 8 27 1z m498 -147
c-6 -29 -10 -38 -8 -21 2 25 -1 31 -13 26 -10 -4 -13 -1 -8 11 3 9 2 19 -3 22
-6 4 -10 11 -10 17 0 7 5 6 15 -2 12 -10 16 -9 21 5 4 9 1 22 -5 28 -9 9 -11
9 -8 -3 2 -8 2 -12 0 -7 -3 4 -11 7 -19 7 -8 0 -14 4 -14 10 0 5 7 7 15 4 9
-4 17 3 22 23 13 52 27 -59 15 -120z m-410 111 c-7 -7 -12 -8 -12 -2 0 14 12
26 19 19 2 -3 -1 -11 -7 -17z m226 -20 c-2 -25 -8 -34 -25 -36 -18 -3 -21 1
-18 24 2 24 19 43 38 44 5 0 7 -15 5 -32z m-368 2 c0 -5 -2 -10 -4 -10 -3 0
-8 5 -11 10 -3 6 -1 10 4 10 6 0 11 -4 11 -10z m155 -29 c-3 -6 -11 -11 -17
-11 -6 0 -6 6 2 15 14 17 26 13 15 -4z m45 -16 c0 -8 -4 -15 -10 -15 -5 0 -10
7 -10 15 0 8 5 15 10 15 6 0 10 -7 10 -15z m100 0 c0 -8 -4 -15 -10 -15 -5 0
-10 4 -10 9 0 5 -10 12 -22 14 -17 3 -14 5 10 6 22 1 32 -3 32 -14z m-285 -5
c3 -5 2 -10 -4 -10 -5 0 -13 5 -16 10 -3 6 -2 10 4 10 5 0 13 -4 16 -10z m155
-20 c0 -5 -5 -10 -11 -10 -5 0 -7 5 -4 10 3 6 8 10 11 10 2 0 4 -4 4 -10z
m130 -10 c0 -5 -5 -10 -11 -10 -5 0 -7 5 -4 10 3 6 8 10 11 10 2 0 4 -4 4 -10z
m-369 -38 c8 -40 5 -40 -15 0 -19 37 -20 41 -4 36 7 -3 15 -19 19 -36z m-23
-37 c-3 -3 -9 2 -12 12 -6 14 -5 15 5 6 7 -7 10 -15 7 -18z m398 -137 c27 0
33 -4 37 -28 4 -17 15 -31 27 -35 11 -3 20 -14 20 -23 -1 -15 -3 -14 -15 2
-18 24 -19 16 -3 -35 6 -22 15 -39 20 -39 4 0 8 -12 8 -27 0 -15 11 -39 26
-54 20 -21 27 -38 27 -68 0 -89 -59 -117 -219 -104 -60 5 -97 12 -94 18 3 6
11 9 18 9 6 -1 12 1 12 5 0 17 -26 31 -56 31 -35 0 -64 29 -64 62 0 10 -4 18
-10 18 -18 0 -10 56 10 75 12 10 19 24 16 31 -3 8 1 11 9 8 15 -6 39 29 27 40
-3 4 -1 10 5 14 16 10 28 62 14 62 -6 0 -10 -5 -8 -11 1 -6 -4 -14 -10 -16 -7
-3 -13 2 -13 11 0 9 11 18 25 22 14 3 25 9 25 14 0 17 48 29 90 24 25 -3 59
-6 76 -6z m-229 -40 c-3 -8 -6 -5 -6 6 -1 11 2 17 5 13 3 -3 4 -12 1 -19z
m-10 -40 c-3 -8 -6 -5 -6 6 -1 11 2 17 5 13 3 -3 4 -12 1 -19z m38 -8 c-3 -5
-10 -10 -16 -10 -5 0 -9 5 -9 10 0 6 7 10 16 10 8 0 12 -4 9 -10z m-18 -42 c2
-18 0 -20 -7 -8 -12 18 -13 30 -2 30 4 0 9 -10 9 -22z m317 6 c9 -24 7 -27 -9
-10 -17 17 -19 26 -6 26 5 0 12 -7 15 -16z m-361 -231 c6 -31 -12 -93 -26 -93
-6 0 -7 20 -3 46 3 26 6 53 6 60 0 25 18 15 23 -13z m417 -93 c20 -6 16 -8
-23 -9 -30 -1 -46 3 -42 9 7 11 29 11 65 0z"/>
<path d="M680 1280 c-8 -5 -11 -12 -7 -16 4 -4 13 -2 19 4 15 15 7 24 -12 12z"/>
<path d="M1630 1793 c-24 -4 -170 -48 -200 -60 -8 -4 -22 -7 -30 -8 -29 -2
-99 -26 -105 -35 -4 -6 -11 -8 -16 -5 -5 4 -9 0 -9 -8 0 -24 -24 -39 -40 -24
-10 10 -12 8 -6 -7 4 -13 2 -17 -8 -13 -8 3 -17 1 -19 -6 -3 -9 -8 -8 -21 2
-14 12 -16 12 -9 -4 5 -14 3 -17 -10 -12 -9 3 -17 3 -17 -2 0 -9 79 -45 123
-55 15 -4 36 -2 47 4 10 6 42 12 69 15 28 3 87 19 132 35 57 21 86 27 93 20 7
-7 5 -10 -7 -10 -9 0 -17 -5 -17 -11 0 -6 38 -9 110 -8 l110 2 0 99 0 98 -72
-1 c-40 -1 -84 -4 -98 -6z"/>
<path d="M1033 1573 c-17 -6 -16 -23 1 -23 8 0 16 7 20 15 6 15 1 17 -21 8z"/>
<path d="M1075 1550 c3 -5 11 -10 16 -10 6 0 7 5 4 10 -3 6 -11 10 -16 10 -6
0 -7 -4 -4 -10z"/>
<path d="M450 1460 c0 -5 17 -10 38 -9 33 1 34 2 12 9 -36 11 -50 11 -50 0z"/>
<path d="M1235 1360 c-3 -5 1 -10 9 -10 9 0 16 5 16 10 0 6 -4 10 -9 10 -6 0
-13 -4 -16 -10z"/>
<path d="M1050 1350 c0 -12 8 -12 35 0 18 8 17 9 -7 9 -16 1 -28 -3 -28 -9z"/>
<path d="M1170 1350 c0 -12 8 -12 35 0 18 8 17 9 -7 9 -16 1 -28 -3 -28 -9z"/>
<path d="M1610 570 c8 -5 26 -10 39 -10 32 0 24 6 -19 14 -25 4 -31 3 -20 -4z"/>
<path d="M1288 253 c7 -3 16 -2 19 1 4 3 -2 6 -13 5 -11 0 -14 -3 -6 -6z"/>
<path d="M1298 19 c-17 -11 45 -18 82 -10 34 8 33 8 -18 12 -30 2 -58 1 -64
-2z"/>
</g>
</svg>
